<svg height="22" width="22" id="Layer_1" xmlns="http://www.w3.org/2000/svg" viewBox="0 0 64 64" fill="none">
    <path d="M25.277,58.846H38.723c5.539,0,7.513-3.881,7.513-7.514V27.466c0-3.9-1.92-5.733-3.53-6.584a8.555,8.555,0,0,0-3.558-.905,2.205,2.205,0,0,0,.028-.275V12.511a2.253,2.253,0,0,0-2.25-2.25H35.58V7.154h3.77a2.272,2.272,0,0,1,2.308,2.455,1,1,0,0,0,1,.985h.016a1,1,0,0,0,.984-1.015A4.3,4.3,0,0,0,39.35,5.154H24.13a1,1,0,0,0,0,2h4.291v3.107H27.077a2.253,2.253,0,0,0-2.251,2.25V19.7a2.209,2.209,0,0,0,.027.265c-3.5.15-7.088,2.174-7.088,7.5V51.228C17.764,54.911,19.738,58.846,25.277,58.846ZM19.764,33.334H44.236v9.5H19.764ZM30.421,7.154H33.58v3.107H30.421Zm-3.6,5.357a.251.251,0,0,1,.251-.25h9.849a.251.251,0,0,1,.25.25V19.7a.251.251,0,0,1-.25.25H27.077a.251.251,0,0,1-.251-.25Zm-1.549,9.442H38.723a6.648,6.648,0,0,1,3.049.7c1.635.864,2.464,2.483,2.464,4.815v3.868H19.764V27.466C19.764,22.49,23.62,21.953,25.277,21.953Zm-5.513,22.88H44.236v6.5c0,1.658-.537,5.514-5.513,5.514H25.277c-4.976,0-5.513-3.929-5.513-5.618Z" fill="#FF7643" stroke="#FF7643" stroke-width="2"/>
</svg>
